<svg width="132" height="24" viewBox="0 0 132 24" fill="none" xmlns="http://www.w3.org/2000/svg">
<path d="M11.0489 2.92705C11.3483 2.00574 12.6517 2.00574 12.9511 2.92705L14.4697 7.60081C14.6035 8.01284 14.9875 8.2918 15.4207 8.2918H20.335C21.3037 8.2918 21.7065 9.53141 20.9228 10.1008L16.947 12.9894C16.5966 13.244 16.4499 13.6954 16.5838 14.1074L18.1024 18.7812C18.4017 19.7025 17.3472 20.4686 16.5635 19.8992L12.5878 17.0106C12.2373 16.756 11.7627 16.756 11.4122 17.0106L7.43648 19.8992C6.65276 20.4686 5.59828 19.7025 5.89763 18.7812L7.41623 14.1074C7.55011 13.6954 7.40345 13.244 7.05296 12.9894L3.07722 10.1008C2.29351 9.53141 2.69628 8.2918 3.66501 8.2918H8.57929C9.01252 8.2918 9.39647 8.01284 9.53035 7.60081L11.0489 2.92705Z" fill="#FED530"/>
<path d="M38.0489 2.92705C38.3483 2.00574 39.6517 2.00574 39.9511 2.92705L41.4697 7.60081C41.6035 8.01284 41.9875 8.2918 42.4207 8.2918H47.335C48.3037 8.2918 48.7065 9.53141 47.9228 10.1008L43.947 12.9894C43.5966 13.244 43.4499 13.6954 43.5838 14.1074L45.1024 18.7812C45.4017 19.7025 44.3472 20.4686 43.5635 19.8992L39.5878 17.0106C39.2373 16.756 38.7627 16.756 38.4122 17.0106L34.4365 19.8992C33.6528 20.4686 32.5983 19.7025 32.8976 18.7812L34.4162 14.1074C34.5501 13.6954 34.4034 13.244 34.053 12.9894L30.0772 10.1008C29.2935 9.53141 29.6963 8.2918 30.665 8.2918H35.5793C36.0125 8.2918 36.3965 8.01284 36.5303 7.60081L38.0489 2.92705Z" fill="#FED530"/>
<path d="M65.0489 2.92705C65.3483 2.00574 66.6517 2.00574 66.9511 2.92705L68.4697 7.60081C68.6035 8.01284 68.9875 8.2918 69.4207 8.2918H74.335C75.3037 8.2918 75.7065 9.53141 74.9228 10.1008L70.947 12.9894C70.5966 13.244 70.4499 13.6954 70.5838 14.1074L72.1024 18.7812C72.4017 19.7025 71.3472 20.4686 70.5635 19.8992L66.5878 17.0106C66.2373 16.756 65.7627 16.756 65.4122 17.0106L61.4365 19.8992C60.6528 20.4686 59.5983 19.7025 59.8976 18.7812L61.4162 14.1074C61.5501 13.6954 61.4034 13.244 61.053 12.9894L57.0772 10.1008C56.2935 9.53141 56.6963 8.2918 57.665 8.2918H62.5793C63.0125 8.2918 63.3965 8.01284 63.5303 7.60081L65.0489 2.92705Z" fill="#FED530"/>
<path d="M92.0489 2.92705C92.3483 2.00574 93.6517 2.00574 93.9511 2.92705L95.4697 7.60081C95.6035 8.01284 95.9875 8.2918 96.4207 8.2918H101.335C102.304 8.2918 102.706 9.53141 101.923 10.1008L97.947 12.9894C97.5966 13.244 97.4499 13.6954 97.5838 14.1074L99.1024 18.7812C99.4017 19.7025 98.3472 20.4686 97.5635 19.8992L93.5878 17.0106C93.2373 16.756 92.7627 16.756 92.4122 17.0106L88.4365 19.8992C87.6528 20.4686 86.5983 19.7025 86.8976 18.7812L88.4162 14.1074C88.5501 13.6954 88.4034 13.244 88.053 12.9894L84.0772 10.1008C83.2935 9.53141 83.6963 8.2918 84.665 8.2918H89.5793C90.0125 8.2918 90.3965 8.01284 90.5303 7.60081L92.0489 2.92705Z" fill="#FED530"/>
<mask id="mask0" style="mask-type:alpha" maskUnits="userSpaceOnUse" x="110" y="2" width="20" height="19">
<path d="M119.049 2.92705C119.348 2.00574 120.652 2.00574 120.951 2.92705L122.47 7.60081C122.604 8.01284 122.987 8.2918 123.421 8.2918H128.335C129.304 8.2918 129.706 9.53141 128.923 10.1008L124.947 12.9894C124.597 13.244 124.45 13.6954 124.584 14.1074L126.102 18.7812C126.402 19.7025 125.347 20.4686 124.564 19.8992L120.588 17.0106C120.237 16.756 119.763 16.756 119.412 17.0106L115.436 19.8992C114.653 20.4686 113.598 19.7025 113.898 18.7812L115.416 14.1074C115.55 13.6954 115.403 13.244 115.053 12.9894L111.077 10.1008C110.294 9.53141 110.696 8.2918 111.665 8.2918H116.579C117.013 8.2918 117.396 8.01284 117.53 7.60081L119.049 2.92705Z" fill="#E15062"/>
</mask>
<g mask="url(#mask0)">
<path d="M119.049 2.92705C119.348 2.00574 120.652 2.00574 120.951 2.92705L122.47 7.60081C122.604 8.01284 122.987 8.2918 123.421 8.2918H128.335C129.304 8.2918 129.706 9.53141 128.923 10.1008L124.947 12.9894C124.597 13.244 124.45 13.6954 124.584 14.1074L126.102 18.7812C126.402 19.7025 125.347 20.4686 124.564 19.8992L120.588 17.0106C120.237 16.756 119.763 16.756 119.412 17.0106L115.436 19.8992C114.653 20.4686 113.598 19.7025 113.898 18.7812L115.416 14.1074C115.55 13.6954 115.403 13.244 115.053 12.9894L111.077 10.1008C110.294 9.53141 110.696 8.2918 111.665 8.2918H116.579C117.013 8.2918 117.396 8.01284 117.53 7.60081L119.049 2.92705Z" fill="#FED530"/>
<rect x="120" width="11" height="21" fill="#998639"/>
</g>
</svg>
