<svg width="24" height="24" viewBox="0 0 24 24" fill="none" xmlns="http://www.w3.org/2000/svg">
<path d="M21.707 20.293L17.168 15.754C18.5149 14.0464 19.1584 11.8888 18.967 9.72241C18.7755 7.55604 17.7635 5.5447 16.1381 4.09984C14.5126 2.65499 12.3964 1.88584 10.2226 1.94973C8.04871 2.01362 5.9814 2.90573 4.44358 4.44355C2.90576 5.98137 2.01365 8.04868 1.94976 10.2225C1.88587 12.3964 2.65502 14.5125 4.09988 16.138C5.54473 17.7635 7.55607 18.7755 9.72244 18.9669C11.8888 19.1584 14.0465 18.5148 15.754 17.168L20.293 21.707L21.707 20.293ZM10.5 17C9.21441 17 7.9577 16.6187 6.88878 15.9045C5.81986 15.1903 4.98674 14.1751 4.49477 12.9874C4.0028 11.7997 3.87408 10.4927 4.12488 9.23187C4.37568 7.97099 4.99475 6.8128 5.90379 5.90376C6.81283 4.99472 7.97102 4.37565 9.2319 4.12485C10.4928 3.87405 11.7997 4.00277 12.9874 4.49474C14.1751 4.98671 15.1903 5.81983 15.9045 6.88875C16.6188 7.95767 17 9.21438 17 10.5C16.9979 12.2232 16.3124 13.8753 15.0938 15.0938C13.8753 16.3123 12.2232 16.9978 10.5 17Z" fill="white"/>
</svg>
